<?xml version="1.0" encoding="iso-8859-1"?>
<!-- Generator: Adobe Illustrator 19.0.0, SVG Export Plug-In . SVG Version: 6.00 Build 0)  -->
<svg version="1.1" id="Capa_1" xmlns="http://www.w3.org/2000/svg" xmlns:xlink="http://www.w3.org/1999/xlink" x="0px" y="0px"
	 viewBox="0 0 512.001 512.001" style="enable-background:new 0 0 512.001 512.001;" xml:space="preserve">
<g>
	<g>
		<g>
			<path d="M440.848,98.655L260.34,1.099c-2.701-1.463-5.957-1.466-8.661-0.009L71.158,98.658l184.843,96.766L440.848,98.655z"/>
			<path d="M246.858,274.75v-63.476L64.001,115.548v187.998c-0.003,3.358,1.838,6.447,4.795,8.04l70.618,38.151
				C158.766,306.928,200.001,278.149,246.858,274.75z"/>
			<path d="M274.286,365.78v73.02c18.134-0.83,27.429-13.121,27.429-36.513C301.715,378.979,292.476,366.708,274.286,365.78z"/>
			<path d="M256.001,292.573c-60.594,0-109.714,49.121-109.714,109.714c0,60.594,49.121,109.714,109.714,109.714
				s109.714-49.121,109.714-109.714C365.647,341.721,316.566,292.64,256.001,292.573z M245.42,384.001
				c0.052,6.781-2.497,13.324-7.121,18.284c4.623,4.962,7.171,11.506,7.121,18.288v9.143c-0.012,13.042-9.202,24.273-21.983,26.865
				c-12.781,2.592-25.621-4.171-30.713-16.177c-1.972-4.65,0.198-10.019,4.848-11.991c4.65-1.972,10.019,0.198,11.991,4.848
				c1.428,3.391,4.749,5.596,8.429,5.596s7-2.205,8.429-5.596c0.476-1.121,0.719-2.327,0.714-3.545v-9.143
				c0.001-2.416-0.955-4.734-2.661-6.446c-1.713-1.73-4.048-2.702-6.482-2.696c-5.049,0-9.143-4.093-9.143-9.143
				c0-5.049,4.093-9.143,9.143-9.143c3.68-0.002,7-2.207,8.429-5.598c0.476-1.121,0.719-2.327,0.714-3.545v-9.143
				c0.001-2.416-0.955-4.734-2.661-6.446c-2.151-2.161-5.237-3.108-8.229-2.525c-2.993,0.582-5.498,2.618-6.682,5.427
				c-1.972,4.65-7.341,6.821-11.991,4.848c-4.65-1.972-6.821-7.341-4.848-11.991c1.381-3.252,3.376-6.208,5.875-8.705
				c2.496-2.51,5.46-4.507,8.723-5.88c6.826-2.857,14.513-2.857,21.339,0c10.163,4.284,16.768,14.243,16.759,25.272V384.001z
				 M274.938,457.086c-0.277,0.013-0.563,0.018-0.839,0.018c-4.629,0.007-9.08-1.786-12.411-5c-3.626-3.477-5.68-8.28-5.688-13.304
				v-73.027c0.008-5.024,2.061-9.827,5.688-13.304c3.548-3.405,8.338-5.205,13.25-4.982c10.571,0.491,45.063,5.893,45.063,54.799
				S285.51,456.595,274.938,457.086z"/>
			<path d="M265.143,211.274v63.476c46.857,3.399,88.092,32.178,107.444,74.987l70.609-38.146c2.961-1.592,4.806-4.683,4.804-8.044
				V115.548L265.143,211.274z"/>
		</g>
	</g>
</g>
<g>
</g>
<g>
</g>
<g>
</g>
<g>
</g>
<g>
</g>
<g>
</g>
<g>
</g>
<g>
</g>
<g>
</g>
<g>
</g>
<g>
</g>
<g>
</g>
<g>
</g>
<g>
</g>
<g>
</g>
</svg>
