<svg width="18" height="18" viewBox="0 0 18 18" fill="none" xmlns="http://www.w3.org/2000/svg">
<g clip-path="url(#clip0)">
<path d="M14.7918 15.8449C13.2309 17.1632 11.2059 18 9.00156 18C5.72149 18 2.84215 16.1929 1.28125 13.5562L1.86562 10.8625L4.45586 10.3816C5.05703 12.3222 6.87106 13.746 9.00156 13.746C10.0351 13.746 10.9949 13.4191 11.7859 12.839L14.275 13.2187L14.7918 15.8449Z" fill="#59C36A"/>
<path d="M14.7902 15.845L14.2734 13.2188L11.7844 12.8391C10.9934 13.4192 10.0336 13.7461 9 13.7461V18C11.2043 18 13.2293 17.1633 14.7902 15.845Z" fill="#00A66C"/>
<path d="M4.25391 9.0001C4.25391 9.48522 4.32773 9.94928 4.4543 10.3817L1.27969 13.5563C0.488672 12.2274 0 10.6665 0 9.0001C0 7.33366 0.488672 5.77275 1.27969 4.44385L3.82757 4.88235L4.4543 7.61846C4.32773 8.05084 4.25391 8.51491 4.25391 9.0001Z" fill="#FFDA2D"/>
<path d="M18 9C18 11.7422 16.7309 14.1996 14.7902 15.8449L11.7844 12.8391C12.3961 12.3961 12.9129 11.8054 13.2504 11.1094H9C8.70465 11.1094 8.47266 10.8773 8.47266 10.582V7.41797C8.47266 7.12262 8.70465 6.89062 9 6.89062H17.325C17.5781 6.89062 17.7996 7.06989 17.8418 7.32301C17.9473 7.87148 18 8.44098 18 9Z" fill="#4086F4"/>
<path d="M13.2504 11.1094C12.9129 11.8054 12.3961 12.3961 11.7844 12.8391L14.7902 15.8449C16.7309 14.1996 18 11.7422 18 9C18 8.44098 17.9473 7.87148 17.8418 7.32301C17.7996 7.06989 17.5781 6.89062 17.325 6.89062H9V11.1094H13.2504Z" fill="#4175DF"/>
<path d="M14.9395 2.51364C14.95 2.66129 14.8867 2.79844 14.7918 2.90387L12.5348 5.15036C12.3555 5.3402 12.0602 5.36129 11.8493 5.20309C11.016 4.58086 10.0351 4.25391 9.00156 4.25391C6.87106 4.25391 5.05703 5.6777 4.45586 7.61836L1.28125 4.44375C2.84215 1.80703 5.72148 0 9.00156 0C11.1004 0 13.1465 0.773438 14.7496 2.1234C14.8656 2.21836 14.9289 2.36598 14.9395 2.51364Z" fill="#FF641A"/>
<path d="M11.8477 5.20309C12.0586 5.36133 12.3539 5.3402 12.5332 5.15036L14.7902 2.90387C14.8852 2.79844 14.9485 2.66133 14.9379 2.51364C14.9273 2.36595 14.864 2.21836 14.748 2.1234C13.1449 0.773438 11.0988 0 9 0V4.25391C10.0336 4.25391 11.0144 4.58086 11.8477 5.20309Z" fill="#F03800"/>
</g>
<defs>
<clipPath id="clip0">
<rect width="18" height="18" fill="white"/>
</clipPath>
</defs>
</svg>
