<svg id="Capa_1" enable-background="new 0 0 512 512" height="512" viewBox="0 0 512 512" width="512" xmlns="http://www.w3.org/2000/svg"><g><path d="m412.629 162.859c17.319-57.536-46.945-103.713-95.83-71.777-12.855-52.291-60.044-91.082-116.301-91.082-83.4 0-140.9 83.123-112.542 160.828-47.266-4.886-87.956 32.162-87.956 79.238 0 44 35.669 79.668 79.668 79.668h31.332v-102.734c0-24.813 20.187-45 45-45h125c12.02 0 23.32 4.681 31.82 13.18l75 75c8.5 8.5 13.18 19.8 13.18 31.82v27.734h31.332c43.999 0 79.668-35.668 79.668-79.668 0-52.003-49.04-90.014-99.371-77.207z"/><path d="m306 267h46.213l-46.213-46.213z"/><path d="m276 282v-80h-120c-8.284 0-15 6.716-15 15v280c0 8.284 6.716 15 15 15h200c8.284 0 15-6.716 15-15v-200h-80c-8.284 0-15-6.716-15-15zm10 110c-8.599 0-12.166-6.556-15-8.787v53.787c0 8.284-6.716 15-15 15s-15-6.716-15-15v-53.837l-4.418 4.418c-5.857 5.858-15.355 5.858-21.213 0s-5.858-15.355 0-21.213l30-30c5.857-5.858 15.355-5.858 21.213 0l30.025 30.025c9.475 9.477 2.637 25.607-10.607 25.607z"/></g></svg>